<?xml version="1.0" encoding="utf-8"?>
<!-- Generator: Adobe Illustrator 19.2.1, SVG Export Plug-In . SVG Version: 6.00 Build 0)  -->
<svg version="1.1" id="Ebene_1" xmlns="http://www.w3.org/2000/svg" xmlns:xlink="http://www.w3.org/1999/xlink" x="0px" y="0px"
	 viewBox="0 0 416.6 141.4" style="enable-background:new 0 0 416.6 141.4;" xml:space="preserve">
<g>
	<path d="M308.8,10.5l4.6,10.7l2.5,5.8h6.6h84.1v104h-160v-104h17.4h6.3l2.7-5.4l5-10.4L308.8,10.5 M315.4,0l-43.7,1l-7.6,16h-27.4
		v124h180v-124h-94.1L315.4,0L315.4,0z"/>
</g>
<path d="M94.1,45.7V67c0,1-0.3,1.8-1.1,2.4c-4.2,3.4-10,5.3-18.1,5.3c-17.2,0-28.5-10.7-28.5-28.9C46.4,28.3,57.8,17,74.8,17
	c6.7,0,12.2,2.3,16.4,5.4c1,0.9,0.7,2.1,0,2.8l-4.1,4.1c-0.9,0.9-1.8,0.7-2.8,0c-2.3-1.7-5.9-2.6-9.5-2.6
	c-11.9,0-17.2,9.7-17.2,19.1c0,9.4,4.5,19.4,17.2,19.4c5.9,0,7.8-1,9.2-2.2V52.5h-7.9c-1.3,0-2-0.7-2-2L74,45.7c0-1.3,0.6-2,1.9-2
	H92C93.3,43.7,94.1,44.4,94.1,45.7z"/>
<path d="M197.6,33c13.1,0,20,9.8,20,20.8v2.2c0,1.3-0.7,2-2,2h-7.9h-20.3c0.3,4.4,4.8,8.6,11.8,8.6c4.4,0,7.5-1.4,9.1-2.4
	c1.1-0.7,2-0.6,2.8,0.4l2.5,3.2c0.8,1,0.7,2-0.3,2.8c-2.2,1.5-6.8,4-14,4c-14.8,0-21.6-9.6-21.6-20.8S184.4,33,197.6,33L197.6,33z
	 M207.7,50.3c0-3.8-3.4-9.1-10.1-9.1c-6.7,0-10.2,5.2-10.2,9.1H207.7z"/>
<path d="M33.3,87.9c0.6,0.6,0.7,1.1,0.7,1.4c0,0.5-0.2,1-0.5,1.4l-2.8,4.2c-0.6,0.7-1.6,1-2.8,0.2c-1.6-1.1-3.9-2.6-7.5-2.6
	c-4.8,0-7.5,2.7-7.5,5.9c0,9.9,24.4,9.3,24.4,26.8c0,10.2-7.8,16.2-19.6,16.2c-9.1,0-15.1-3.7-17.1-5.8c-0.5-0.5-0.6-0.9-0.6-1.4
	s0.2-1,0.5-1.4l3.2-4.7c1-1.3,1.8-0.9,2.7-0.2c2.6,1.8,5.9,3.9,11.1,3.9c6,0,8.7-3.1,8.7-6.3c0-9.5-23.7-9.4-23.7-26.3
	c0-9.4,7.5-15.6,17.6-15.6C26.5,83.7,31.7,86.3,33.3,87.9z"/>
<path d="M80,115.2v24.5c0,1.1-0.5,1.7-1.2,1.7c-0.4,0-0.8-0.1-1.8-0.7l-5.7-3.7c-3.1,2.6-7.5,4.4-13.1,4.4c-10,0-14.5-6.4-14.5-13.1
	c0-5.9,3.7-11.5,13.5-13.1l12.7-2c0-1.4-1.1-2.8-2.5-3.7c-1.4-1-4-1.8-8-1.8c-3.8,0-7.1,0.6-8.4,0.9c-1,0.2-1.2,0.2-1.4,0.2
	c-1,0-1.5-0.6-1.8-1.6l-0.8-3.1c-0.2-1-0.2-1.1-0.2-1.4c0-0.9,0.6-1.5,1.6-1.8c2.4-0.5,6.7-1.2,11-1.2c6.7,0,10.8,1.1,14.2,3.2
	C77.8,105.5,80,110.2,80,115.2z M60.1,133.4c3.7-0.1,7-1.8,9.9-3.9v-9.3l-9.9,2c-6.3,1.3-7.2,4.1-7.2,6.2
	C52.9,131.9,56.1,133.6,60.1,133.4z"/>
<path d="M121.5,103.9c0.6,0.4,0.8,1,0.8,1.4c0,0.5-0.2,0.9-0.6,1.4l-3.1,4c-0.8,1-1.8,1-2.8,0.4c-1.7-1.1-4.2-2.2-7.6-2.2
	c-5.3,0-10.7,3.6-10.7,11.6c0,8,5.4,11.6,10.7,11.6c3.4,0,5.9-1,7.6-2.2c1-0.6,2-0.6,2.8,0.4l3.1,4c0.4,0.5,0.6,0.9,0.6,1.4
	s-0.2,1-0.8,1.4c-3.3,2.4-7.5,4.2-13.3,4.2c-11.7,0-20.9-7.8-20.9-20.8c0-12.9,9.2-20.8,20.9-20.8
	C113.9,99.7,118.2,101.5,121.5,103.9z"/>
<path d="M153.2,103.8c-5,0-9.6,1.5-12.6,3.6V82.8c0,0-0.2,0-0.8,0c-0.4,0-0.7-0.1-1.7-0.7c0,0-5.5-3.9-5.9-3.9
	c-0.3,0.1-1.1,1-1.8,1.5c0,0.1,0.2,3.2,0.2,3.2v55.9c0,1.3,0.6,2.1,1.9,2.1h6.4c1.3,0,1.7-0.8,1.7-2.1v-21.2c2-2.5,6.1-4.6,10-4.6
	c4.4,0,7,2.1,7,6.7v19.2c0,1.3,1.1,2.1,2.4,2.1h6.4c1.3,0,2.2-0.8,2.2-2.1v-20C168.6,110.6,163.3,103.8,153.2,103.8z"/>
<path d="M140.9,35.4c0-1.3-0.5-2.5-1.8-2.5h-6.4c-1.3,0-2.1,1.6-2.1,2.9V61c-2,2.5-6,4.5-9.3,4.5c-4.7,0-6.7-2.1-6.7-5.8V35.8
	c0-1.3-0.5-2.9-1.8-2.9h-6.4c-1.3,0-1.8,1.6-1.8,2.9v23.9c0,8.3,4.6,14.9,14.7,15c4.4,0,12.2-4.6,13.1-4.6c0.6-0.1,5.9,3.9,5.9,3.9
	c1,0.6,1.3,0.7,1.7,0.7c0.7,0,0.9-0.7,1-1.7L140.9,35.4z"/>
<path d="M172.1,66.7c-0.6-1-1.5-1.2-2.6-0.9c-0.7,0.2-1.9,0.3-2.8,0.3c-2.4-0.1-4-1.1-4-4V41.9h6c1,0,1.8-0.2,2.7-1.7l2.5-3.5
	c0.6-1,0.8-1.8,0.8-2.2c0-0.7-0.6-1.6-1.8-1.6h-10.3v-6.3c0-1.3-0.2-2.7-1.5-2.7H155c-1.3,0-1.3,1.4-1.3,2.7v6.3h-4.8
	c-1.3,0-2.2,1.6-2.2,2.9v4.4c0,1.3,0.9,1.7,2.2,1.7h4.8v22c0,3.8,0.8,6.5,2.8,8c2,1.5,4.5,2.6,7.5,2.7c0,0,0.6,0,1.1,0
	c3.4,0,6.1-0.6,8.6-1.9c0.7-0.4,1.1-1,1.1-1.6c0-0.4-0.2-0.8-0.4-1.2L172.1,66.7z"/>
<path d="M197.6,99.7c13.1,0,20,9.8,20,20.8v2.2c0,1.3-0.7,2-2,2h-7.9h-20.3c0.3,4.4,4.8,8.6,11.8,8.6c4.4,0,7.5-1.4,9.1-2.4
	c1.1-0.7,2-0.6,2.8,0.4l2.5,3.2c0.8,1,0.7,2-0.3,2.8c-2.2,1.5-6.8,4-14,4c-14.8,0-21.6-9.6-21.6-20.8S184.4,99.7,197.6,99.7
	L197.6,99.7z M207.7,117c0-3.8-3.4-9.1-10.1-9.1c-6.7,0-10.2,5.2-10.2,9.1H207.7z"/>
<g>
</g>
<g>
</g>
<g>
</g>
<g>
</g>
<g>
</g>
<g>
</g>
<g>
</g>
<g>
</g>
<g>
</g>
<g>
</g>
<g>
</g>
<g>
</g>
<g>
</g>
<g>
</g>
<g>
</g>
</svg>
