<?xml version="1.0" encoding="UTF-8" standalone="no"?>
<svg width="183px" height="34px" viewBox="0 0 183 34" version="1.1" xmlns="http://www.w3.org/2000/svg" xmlns:xlink="http://www.w3.org/1999/xlink">
    <!-- Generator: Sketch 3.6.1 (26313) - http://www.bohemiancoding.com/sketch -->
    <title>Artboard</title>
    <desc>Created with Sketch.</desc>
    <defs></defs>
    <g id="Page-1" stroke="none" stroke-width="1" fill="none" fill-rule="evenodd">
        <g id="Artboard" fill="#000000">
            <path d="M135.699,19.334 C136.46,18.77 137.193,18.367 137.9,18.128 C138.606,17.889 139.373,17.77 140.2,17.77 C141.743,17.77 142.95,18.162 143.82,18.944 C144.689,19.726 145.125,20.825 145.125,22.238 L145.125,30.261 C145.125,30.631 145.179,30.897 145.288,31.06 C145.396,31.223 145.602,31.36 145.908,31.468 L146.233,31.566 C146.495,31.653 146.669,31.761 146.755,31.892 C146.841,32.023 146.886,32.273 146.886,32.642 L146.886,33.197 L138.666,33.197 L138.666,32.642 C138.666,32.338 138.693,32.116 138.748,31.974 C138.803,31.832 138.883,31.729 138.992,31.663 L139.318,31.565 L139.513,31.467 C139.861,31.293 140.078,31.141 140.165,31.011 C140.252,30.88 140.296,30.63 140.296,30.26 L140.296,22.758 C140.296,20.953 139.589,20.051 138.177,20.051 C137.177,20.051 136.35,20.432 135.698,21.194 L135.698,30.26 C135.698,30.63 135.735,30.886 135.812,31.027 C135.887,31.169 136.111,31.315 136.48,31.467 L136.709,31.565 L137.003,31.663 C137.133,31.728 137.226,31.832 137.28,31.974 C137.334,32.116 137.361,32.338 137.361,32.642 L137.361,33.197 L129.109,33.197 L129.109,32.642 C129.109,32.273 129.147,32.023 129.223,31.892 C129.299,31.761 129.479,31.653 129.761,31.566 L130.087,31.468 C130.369,31.36 130.566,31.223 130.674,31.06 C130.783,30.897 130.837,30.631 130.837,30.261 L130.837,14.411 C130.837,14.041 130.783,13.769 130.674,13.595 C130.566,13.421 130.369,13.291 130.087,13.204 L129.761,13.106 C129.479,13.019 129.299,12.905 129.223,12.764 C129.147,12.622 129.109,12.367 129.109,11.997 L129.109,11.443 L135.699,11.246 L135.699,19.334 Z" id="Shape"></path>
            <path d="M159.345,18.325 C160.237,18.673 161.003,19.173 161.645,19.825 C162.285,20.476 162.781,21.27 163.128,22.206 C163.476,23.141 163.66,24.195 163.683,25.37 L153.833,25.37 C153.876,27.501 154.278,29.12 155.04,30.228 C155.801,31.337 156.898,31.892 158.334,31.892 C159.116,31.892 159.823,31.707 160.454,31.337 C161.084,30.968 161.791,30.326 162.574,29.413 L163.813,30.424 C162.225,32.556 160.041,33.62 157.257,33.62 C156.039,33.62 154.908,33.413 153.864,33.001 C152.821,32.588 151.918,32.012 151.157,31.272 C150.396,30.534 149.803,29.659 149.38,28.647 C148.957,27.635 148.744,26.543 148.744,25.37 C148.744,24.261 148.933,23.245 149.314,22.319 C149.695,21.395 150.216,20.602 150.879,19.938 C151.542,19.275 152.336,18.754 153.26,18.374 C154.185,17.993 155.2,17.803 156.31,17.803 C157.443,17.802 158.452,17.976 159.345,18.325 L159.345,18.325 Z M158.889,23.738 C158.867,22.303 158.649,21.206 158.237,20.444 C157.823,19.683 157.215,19.302 156.41,19.302 C155.628,19.302 155.018,19.683 154.584,20.444 C154.148,21.206 153.91,22.303 153.866,23.738 L158.889,23.738 L158.889,23.738 Z" id="Shape"></path>
            <path d="M124.92,31.435 C125.452,31.131 125.99,30.642 126.534,29.968 L127.643,30.913 C126.947,31.892 126.186,32.588 125.36,33.001 C124.534,33.413 123.501,33.62 122.261,33.62 C121,33.62 119.836,33.419 118.771,33.016 C117.706,32.615 116.787,32.054 116.015,31.336 C115.243,30.618 114.64,29.766 114.205,28.775 C113.769,27.786 113.553,26.715 113.553,25.563 C113.553,24.411 113.759,23.356 114.172,22.399 C114.585,21.442 115.161,20.621 115.901,19.936 C116.641,19.251 117.527,18.719 118.559,18.338 C119.592,17.958 120.728,17.767 121.968,17.767 C123.598,17.767 124.892,18.083 125.849,18.713 C126.805,19.344 127.284,20.202 127.284,21.29 C127.284,21.921 127.072,22.442 126.649,22.854 C126.224,23.268 125.697,23.474 125.066,23.474 C124.524,23.474 124.045,23.29 123.631,22.92 C123.217,22.55 123.011,22.126 123.011,21.648 C123.011,21.474 123.038,21.317 123.093,21.175 C123.147,21.033 123.229,20.854 123.337,20.637 C123.424,20.528 123.479,20.431 123.5,20.343 C123.521,20.257 123.533,20.18 123.533,20.114 C123.533,19.853 123.429,19.646 123.222,19.494 C123.016,19.343 122.728,19.266 122.358,19.266 C121.271,19.266 120.412,19.826 119.782,20.946 C119.151,22.066 118.836,23.583 118.836,25.496 C118.836,27.475 119.217,29.034 119.978,30.177 C120.739,31.319 121.793,31.889 123.142,31.889 C123.795,31.892 124.387,31.741 124.92,31.435" id="Shape"></path>
            <path d="M106.378,31.24 C105.986,31.697 105.611,32.077 105.253,32.382 C104.895,32.687 104.53,32.933 104.16,33.116 C103.791,33.3 103.389,33.43 102.953,33.507 C102.518,33.583 102.029,33.621 101.486,33.621 C100.703,33.621 99.996,33.517 99.366,33.311 C98.735,33.105 98.191,32.811 97.735,32.43 C97.278,32.05 96.924,31.593 96.674,31.061 C96.424,30.528 96.299,29.935 96.299,29.283 C96.299,28.566 96.467,27.903 96.805,27.294 C97.142,26.686 97.615,26.174 98.224,25.761 C99.333,25.043 100.507,24.543 101.746,24.261 C102.028,24.196 102.425,24.11 102.936,23.999 C103.447,23.892 104.082,23.75 104.844,23.576 L105.497,23.413 C105.452,21.956 105.24,20.901 104.859,20.249 C104.478,19.597 103.876,19.27 103.049,19.27 C102.635,19.27 102.304,19.357 102.054,19.531 C101.804,19.705 101.679,19.945 101.679,20.249 L101.679,20.444 C101.679,20.509 101.69,20.596 101.711,20.705 C101.732,20.814 101.744,20.913 101.744,20.999 L101.744,21.26 C101.744,21.826 101.543,22.293 101.14,22.663 C100.738,23.032 100.221,23.217 99.59,23.217 C98.959,23.217 98.421,23.017 97.976,22.613 C97.531,22.211 97.308,21.728 97.308,21.162 C97.308,20.684 97.455,20.232 97.747,19.809 C98.041,19.384 98.448,19.026 98.971,18.732 C99.492,18.438 100.107,18.205 100.814,18.031 C101.52,17.857 102.288,17.77 103.113,17.77 C104.027,17.77 104.885,17.868 105.69,18.063 C106.494,18.258 107.223,18.564 107.876,18.977 C108.354,19.259 108.756,19.575 109.082,19.922 C109.408,20.271 109.669,20.678 109.865,21.146 C110.06,21.614 110.202,22.152 110.289,22.759 C110.376,23.368 110.42,24.086 110.42,24.912 L110.42,28.924 C110.42,29.924 110.469,30.576 110.566,30.881 C110.663,31.186 110.886,31.337 111.235,31.337 C111.539,31.337 111.799,31.195 112.017,30.913 L112.409,31.434 C112.54,31.63 112.604,31.772 112.604,31.859 C112.604,32.25 112.234,32.63 111.497,33.001 C111.126,33.196 110.8,33.332 110.518,33.408 C110.235,33.484 109.887,33.522 109.474,33.522 C108.063,33.523 107.031,32.762 106.378,31.24 L106.378,31.24 Z M105.563,24.912 C104.302,25.107 103.324,25.57 102.627,26.298 C101.932,27.027 101.584,27.945 101.584,29.054 C101.584,29.793 101.752,30.419 102.089,30.93 C102.426,31.441 102.845,31.697 103.345,31.697 C103.997,31.697 104.531,31.322 104.944,30.571 C105.356,29.822 105.563,28.849 105.563,27.653 L105.563,24.912 L105.563,24.912 Z" id="Shape"></path>
            <path d="M92.974,11.638 L92.942,17.117 L92.159,17.117 C91.789,17.117 91.517,17.058 91.344,16.938 C91.17,16.819 90.996,16.575 90.822,16.204 L90.398,15.226 L90.039,14.378 C89.8,13.835 89.376,13.383 88.767,13.024 C88.159,12.665 87.506,12.486 86.81,12.486 C85.897,12.486 85.142,12.758 84.544,13.302 C83.946,13.846 83.647,14.519 83.647,15.324 C83.647,16.846 84.81,17.988 87.137,18.748 L87.985,19.042 C89.376,19.521 90.485,19.993 91.311,20.461 C92.137,20.93 92.79,21.455 93.269,22.043 C93.704,22.586 94.051,23.223 94.312,23.951 C94.574,24.68 94.704,25.424 94.704,26.185 C94.704,27.228 94.486,28.206 94.052,29.12 C93.617,30.034 93.019,30.833 92.259,31.517 C91.497,32.202 90.611,32.746 89.601,33.148 C88.589,33.55 87.507,33.752 86.355,33.752 C85.724,33.752 85.072,33.687 84.398,33.556 C83.724,33.426 83.137,33.241 82.637,33.002 L82.311,32.839 C81.875,32.643 81.549,32.545 81.332,32.545 C80.984,32.545 80.767,32.764 80.68,33.197 L78.788,33.197 L78.788,27.423 L79.799,27.423 C80.081,27.423 80.294,27.479 80.435,27.586 C80.577,27.695 80.734,27.924 80.908,28.272 L81.365,29.185 C81.865,30.164 82.534,30.903 83.371,31.403 C84.207,31.904 85.181,32.153 86.29,32.153 C87.42,32.153 88.345,31.827 89.062,31.174 C89.78,30.522 90.139,29.686 90.139,28.662 C90.139,27.141 89.312,25.977 87.66,25.173 C87.333,24.999 87.007,24.853 86.681,24.733 C86.355,24.614 85.975,24.478 85.539,24.326 L84.789,24.065 C82.984,23.434 81.582,22.532 80.582,21.358 C79.582,20.183 79.082,18.857 79.082,17.379 C79.082,16.465 79.266,15.617 79.636,14.835 C80.006,14.053 80.517,13.373 81.169,12.797 C81.822,12.221 82.582,11.764 83.452,11.427 C84.322,11.09 85.257,10.922 86.257,10.922 C86.931,10.922 87.54,10.993 88.084,11.134 C88.627,11.275 89.182,11.498 89.747,11.802 C90.073,11.976 90.318,12.101 90.481,12.177 C90.644,12.254 90.78,12.291 90.889,12.291 C91.171,12.291 91.389,12.075 91.541,11.639 L92.974,11.639 L92.974,11.638 Z" id="Shape"></path>
            <path d="M64.534,18.325 C65.425,18.673 66.192,19.173 66.833,19.825 C67.474,20.476 67.969,21.27 68.317,22.206 C68.665,23.141 68.85,24.195 68.871,25.37 L59.022,25.37 C59.065,27.501 59.467,29.12 60.228,30.228 C60.99,31.337 62.088,31.892 63.523,31.892 C64.306,31.892 65.012,31.707 65.643,31.337 C66.273,30.968 66.98,30.326 67.763,29.413 L69.002,30.424 C67.414,32.556 65.229,33.62 62.446,33.62 C61.228,33.62 60.098,33.413 59.055,33.001 C58.011,32.588 57.108,32.012 56.347,31.272 C55.586,30.534 54.994,29.659 54.57,28.647 C54.146,27.635 53.934,26.543 53.934,25.37 C53.934,24.261 54.124,23.245 54.504,22.319 C54.885,21.395 55.407,20.602 56.07,19.938 C56.733,19.275 57.527,18.754 58.451,18.374 C59.375,17.994 60.391,17.803 61.5,17.803 C62.631,17.802 63.642,17.976 64.534,18.325 L64.534,18.325 Z M64.077,23.738 C64.055,22.303 63.838,21.206 63.425,20.444 C63.012,19.683 62.403,19.302 61.598,19.302 C60.816,19.302 60.206,19.683 59.772,20.444 C59.337,21.206 59.098,22.303 59.055,23.738 L64.077,23.738 L64.077,23.738 Z" id="Shape"></path>
            <path d="M50.118,18.193 L53.053,18.193 L53.053,20.15 L50.118,20.15 L50.118,29.414 C50.118,30.784 50.596,31.469 51.553,31.469 C51.792,31.469 52.004,31.431 52.189,31.355 C52.373,31.279 52.64,31.122 52.988,30.882 L53.804,31.958 C53.216,32.566 52.607,32.996 51.977,33.246 C51.346,33.496 50.596,33.621 49.726,33.621 C48.052,33.621 46.834,33.143 46.074,32.186 C45.747,31.794 45.53,31.392 45.421,30.979 C45.312,30.566 45.258,29.958 45.258,29.153 L45.258,20.15 L43.399,20.15 L43.399,19.499 C43.399,19.151 43.595,18.89 43.986,18.716 L44.28,18.553 L44.54,18.455 C45.018,18.216 45.258,17.769 45.258,17.118 L45.258,15.357 C45.258,14.814 45.34,14.455 45.503,14.28 C45.666,14.107 45.997,14.009 46.497,13.987 L50.118,13.791 L50.118,18.193 L50.118,18.193 Z" id="Shape"></path>
            <path d="M40.106,17.965 L40.106,30.163 C40.106,30.533 40.16,30.805 40.269,30.978 C40.377,31.153 40.584,31.283 40.889,31.37 L41.215,31.468 C41.476,31.555 41.649,31.669 41.737,31.811 C41.823,31.953 41.867,32.207 41.867,32.577 L41.867,33.197 L35.409,33.197 L35.409,31.86 L35.083,32.154 C34.431,32.719 33.8,33.105 33.191,33.311 C32.583,33.517 31.821,33.621 30.908,33.621 C29.473,33.621 28.342,33.181 27.516,32.301 C26.689,31.42 26.277,30.197 26.277,28.631 L26.277,21.13 C26.277,20.76 26.233,20.51 26.147,20.38 C26.059,20.249 25.853,20.097 25.527,19.923 L25.298,19.825 L24.939,19.726 C24.679,19.619 24.548,19.282 24.548,18.715 L24.548,18.193 L31.137,17.965 L31.137,28.761 C31.137,29.588 31.305,30.245 31.642,30.735 C31.979,31.223 32.441,31.468 33.028,31.468 C33.441,31.468 33.86,31.364 34.284,31.158 C34.708,30.951 35.039,30.696 35.279,30.39 L35.279,21.128 C35.279,20.758 35.224,20.492 35.116,20.329 C35.006,20.166 34.811,20.03 34.529,19.921 L34.203,19.823 C33.941,19.736 33.767,19.622 33.681,19.48 C33.593,19.338 33.55,19.084 33.55,18.713 L33.55,18.193 L40.106,17.965 L40.106,17.965 Z" id="Shape"></path>
            <path d="M19.602,11.899 L19.537,17.998 L18.526,17.998 C18.221,17.998 17.966,17.929 17.759,17.786 C17.552,17.645 17.362,17.39 17.188,17.02 L16.569,15.78 C16.003,14.65 15.356,13.829 14.628,13.317 C13.899,12.807 13.014,12.551 11.97,12.551 C10.056,12.551 8.583,13.35 7.551,14.948 C6.518,16.546 6.001,18.837 6.001,21.814 C6.001,23.684 6.197,25.369 6.588,26.869 C6.98,28.37 7.556,29.577 8.317,30.49 C8.752,30.991 9.312,31.392 9.997,31.697 C10.682,32.002 11.404,32.153 12.165,32.153 C13.274,32.153 14.09,31.904 14.612,31.403 C15.134,30.903 15.394,30.132 15.394,29.088 L15.394,27.032 C15.394,26.228 15.324,25.641 15.183,25.271 C15.041,24.902 14.786,24.663 14.416,24.554 L13.959,24.391 C13.503,24.26 13.274,23.967 13.274,23.51 L13.274,22.727 L21.298,22.792 C21.145,22.944 21.032,23.074 20.956,23.184 C20.879,23.292 20.819,23.412 20.776,23.542 C20.732,23.673 20.706,23.836 20.695,24.031 C20.684,24.227 20.678,24.477 20.678,24.781 L20.678,28.924 C20.678,29.359 20.748,29.657 20.89,29.82 C21.032,29.983 21.331,30.087 21.787,30.131 L21.787,30.75 L21.787,30.979 C21.787,31.218 21.581,31.479 21.167,31.761 C20.754,32.045 20.2,32.316 19.504,32.576 C18.482,32.946 17.373,33.234 16.177,33.44 C14.981,33.647 13.731,33.751 12.427,33.751 C10.339,33.751 8.55,33.501 7.061,33.001 C5.572,32.501 4.305,31.729 3.262,30.686 C2.218,29.62 1.413,28.375 0.848,26.951 C0.282,25.527 0,23.999 0,22.368 C0,20.738 0.277,19.227 0.831,17.835 C1.386,16.443 2.147,15.237 3.115,14.214 C4.082,13.193 5.229,12.394 6.556,11.817 C7.882,11.241 9.328,10.953 10.894,10.953 C11.872,10.953 12.769,11.046 13.584,11.23 C14.4,11.415 15.231,11.725 16.08,12.16 L16.503,12.356 C16.808,12.508 17.047,12.584 17.221,12.584 C17.395,12.584 17.519,12.551 17.596,12.486 C17.672,12.42 17.764,12.301 17.873,12.127 C17.873,12.084 17.884,12.045 17.906,12.013 C17.927,11.981 17.949,11.942 17.971,11.899 L19.602,11.899 L19.602,11.899 Z" id="Shape"></path>
            <path d="M172.316,1.473 L171.54,0.147 L166.819,0 L166.003,1.473 L163.761,1.473 L163.761,15.473 L182.761,15.473 L182.761,1.473 L172.316,1.473 Z M179.656,6.82 C179.086,6.548 178.346,6.417 177.755,6.417 C176.034,6.417 175.084,7.615 175.084,9.174 C175.084,10.72 176.012,11.886 177.586,11.886 C177.987,11.886 178.305,11.842 178.558,11.777 L178.558,9.794 L176.996,9.794 L176.996,8.596 L179.974,8.596 L179.974,12.692 C179.193,12.91 178.379,13.085 177.587,13.085 C175.201,13.085 173.543,11.853 173.543,9.282 C173.543,6.678 175.085,5.218 177.587,5.218 C178.442,5.218 179.118,5.339 179.752,5.534 L179.656,6.82 Z M171.656,12.638 C171.138,12.931 170.547,13.084 169.787,13.084 C167.992,13.084 166.946,12.016 166.946,10.175 C166.946,8.552 167.78,7.212 169.469,7.212 C171.487,7.212 172.056,8.639 172.056,10.6 L168.297,10.6 C168.36,11.504 168.974,12.016 169.851,12.016 C170.537,12.016 171.127,11.755 171.656,11.45 L171.656,12.638 Z M170.704,9.598 C170.662,8.89 170.346,8.28 169.554,8.28 C168.762,8.28 168.361,8.846 168.297,9.598 L170.704,9.598 Z" id="Shape"></path>
        </g>
    </g>
</svg>